<svg id="canvas" height="auto" xmlns="http://www.w3.org/2000/svg" version="1.1" xmlns:xlink="http://www.w3.org/1999/xlink" xmlns:svgjs="http://svgjs.dev/svgjs" viewBox="0 0 900 512" width="auto" style="width: auto; height: auto;"><rect width="900" height="512" fill="#000000ff"/><path d="M132.1029730463968 321.31698724617286C86.92375557852932 326.80288826969525 9.92016608405038 272.4969265816683 -39.109903296091886 261.3087527892709C-88.13997267623415 250.12057899687352 -126.0049644348992 267.9554379114634 -162.07744323445695 254.18794449178824C-198.1499220340147 240.4204510721131 -226.59245423468147 207.11706135007375 -255.5447760934384 178.70379227121975C-284.49709795219536 150.29052319236575 -320.11326428250896 120.62628248204715 -335.7913743869986 83.70833001866447C-351.46948449148823 46.79037755528179 -349.5804841298279 -1.2317360540731102 -349.61343672037606 -42.80392250907613C-349.64638931092423 -84.37610896407915 -353.5235861148622 -131.52902338354892 -335.9890899302877 -165.72478871135377C-318.4545937457133 -199.92055403915862 -277.0108615244339 -219.45360548451686 -244.40645961292924 -247.97851447590523C-211.8020577014246 -276.5034234672936 -176.72452649259844 -320.161599740179 -140.3626784612598 -336.874242659684C-104.00083042992117 -353.586885579189 -66.5723242617791 -347.9714381986841 -26.235371424897437 -348.25437199293515C14.101581411984228 -348.5373057871862 60.23910896344489 -355.76361902685113 101.65903856003024 -338.5718454251904C143.0789681566156 -321.3800718235297 186.81273997424205 -276.95783833778535 222.28420615461448 -245.1037303829709C257.7556723349869 -213.2496224281564 308.57329734542736 -181.20027716906435 314.4878356422648 -147.44719769630356C320.4023739391023 -113.69411822354277 267.19506731272304 -80.56300210329971 257.7714359356396 -42.585253546406136C248.34780455855616 -4.607504989512563 262.24705311718503 35.256193612634036 257.94604737976397 80.41929364505779C253.6450416423429 125.58239367748155 252.939247233341 188.24373104795063 231.9654015111131 228.39334664813646C210.9915557888852 268.5429622483223 177.28219051426436 315.83108622265047 132.1029730463968 321.31698724617286C86.92375557852932 326.80288826969525 9.92016608405038 272.4969265816683 -39.109903296091886 261.3087527892709 " fill="url(#SvgjsLinearGradient1015)"/><defs><linearGradient gradientTransform="matrix(1,0,0,1,0,0)" id="SvgjsLinearGradient1015"><stop stop-color="#e71989ff" offset="0"/><stop stop-color="#e77719ff" offset="1"/></linearGradient><linearGradient gradientTransform="matrix(1,0,0,1,0,0)" id="SvgjsLinearGradient1016"><stop stop-color="#e71989ff" offset="0"/><stop stop-color="#e77719ff" offset="1"/></linearGradient></defs><path d="M1044.4142007052308 967.0859728770289C997.8429069883152 973.20052079818 924.7797617768838 920.6174225542511 874.4675469010342 911.8005170327785C824.1553320251849 902.983611511306 779.0565026065683 922.0708466159303 742.540911450134 914.1845397481935C706.0253202936998 906.2982328804567 686.154117314311 889.8510462137202 655.3739999624286 864.4826758263578C624.5938826105461 839.1143054389953 573.9921160498769 805.4759298972745 557.8602073388394 761.974317424019C541.7282986278018 718.4727049507635 558.7990380744559 652.3743529944282 558.5825476962033 603.4730009868249C558.3660573179507 554.5716489792217 540.7959353849733 506.74629785859514 556.5612650693236 468.56620537839933C572.3265947536739 430.3861128982036 619.1063189239085 405.9103265062975 653.1745258023054 374.39244610565027C687.2427326807025 342.8745657050031 721.8520744517896 296.9603855643197 760.9705063397058 279.4589229745161C800.0889382276222 261.9574603847125 843.8891291181129 269.59219999942434 887.8851171298033 269.38367056682847C931.8811051414939 269.1751411342326 979.9526283252173 260.2944317990679 1024.9464344098487 278.20774637894107C1069.9402404944803 296.1210609588142 1119.494358453387 342.61729130558865 1157.8479536375926 376.86355804606745C1196.2015488217983 411.10982478654626 1254.0455736787649 450.73899949495694 1255.068005515083 483.6853468218138C1256.0904373514013 516.6316941486707 1181.1124710898457 538.7597188344562 1163.9825446555012 574.5416420072086C1146.8526182211567 610.323565179961 1153.9696528178456 648.2816212752177 1152.2884469090166 698.3768858583281C1150.6072410001875 748.4721504414385 1171.8743502364919 830.3283816694213 1153.8953092025274 875.1132295058715C1135.916268168563 919.8980773423216 1090.9854944221463 960.9714249558778 1044.4142007052308 967.0859728770289C997.8429069883152 973.20052079818 924.7797617768838 920.6174225542511 874.4675469010342 911.8005170327785 " fill="url(#SvgjsLinearGradient1016)" transform="matrix(-1,1.2246467991473532e-16,-1.2246467991473532e-16,-1,1805.078369140625,1234.5792846679688)"/></svg>